<svg xmlns="http://www.w3.org/2000/svg" xmlns:svg="http://www.w3.org/2000/svg" id="svg96" width="470" height="154.282" version="1.1" viewBox="0 0 470 154.282"><metadata id="metadata102"/><g id="g94" transform="translate(-0.30264462,-357.70996)"><path id="path92" fill="red" fill-opacity="1" d="m 387.59264,441.72996 a 35.125,35.125 0 1 0 35.125,35.125 35.17,35.17 0 0 0 -35.125,-35.125 z m 0,62.873 a 27.736,27.736 0 1 1 27.736,-27.737 27.736,27.736 0 0 1 -27.736,27.748 z m 8.876,-27.737 a 8.876,8.876 0 1 1 -8.876,-8.875 8.876,8.876 0 0 1 8.876,8.875 z m -265.538,0 a 35.125,35.125 0 1 0 -35.125995,35.126 35.17,35.17 0 0 0 35.125995,-35.126 z m -35.125995,27.737 a 27.736,27.736 0 1 1 27.736995,-27.737 27.736,27.736 0 0 1 -27.736995,27.748 z m 345.451995,-21.823 a 53.997,53.997 0 1 0 -107.617,-5.925 53.665,53.665 0 0 0 5.447,23.61 h -194.776 a 53.986,53.986 0 1 0 -101.848995,-15.211 c -25.617,-10.763 -42.15900038,-28.37 -42.15900038,-56.217 0,-28.846 86.87000038,-69.418 142.12199538,-71.327 v 34.094 a 24.83,24.83 0 0 0 24.83,24.83 h 47.517 a 24.774,24.774 0 0 0 24.409,-20.758 c 0,0 -1.62,-21.668 -6.813,-25.518 l 3.407,-2.54 24.474,28.08 h 94.104 c 63.994,-0.022 115.95,23.42 115.95,52.266 0,13.314 -10.973,25.396 -29.046,34.616 z m -336.576,-5.925 a 8.876,8.876 0 1 1 -8.875995,-8.876 8.876,8.876 0 0 1 8.875995,8.887 z"/></g></svg>